<svg width="28" height="19" viewBox="0 0 28 19" fill="none" xmlns="http://www.w3.org/2000/svg">
<path d="M14.0005 18.5134C9.92981 18.5134 5.85908 18.5156 1.78945 18.5112C0.988234 18.5101 0.342659 18.0495 0.0960482 17.3311C-0.142891 16.6357 0.0730301 15.88 0.642976 15.4106C1.03317 15.0881 1.49132 15.0048 1.98235 15.0059C7.80128 15.0092 13.6202 15.0081 19.4391 15.0081C21.6652 15.0081 23.8924 15.0026 26.1185 15.0103C27.3723 15.0146 28.1977 16.0018 27.9412 17.1633C27.7636 17.9683 27.0622 18.5112 26.1722 18.5123C23.6721 18.5167 21.1731 18.5145 18.673 18.5145C17.1155 18.5145 15.558 18.5145 14.0005 18.5134Z" fill="#383838"/>
<path d="M14.0428 0.00234251C18.0862 0.00234251 22.1295 0.00234251 26.1717 0.00234251C26.8885 0.00234251 27.4399 0.300674 27.7796 0.936817C28.103 1.54225 28.0668 2.14987 27.6908 2.72021C27.3018 3.31029 26.7208 3.5121 26.0336 3.511C21.7448 3.50662 17.4559 3.50881 13.1671 3.50881C9.42409 3.50881 5.68218 3.5099 1.93917 3.50881C0.949434 3.50881 0.232616 2.98893 0.0473836 2.14878C-0.202516 1.01688 0.606372 0.00892544 1.79011 0.00453825C4.15319 -0.00313934 6.51627 0.00124799 8.87935 0.00124799C10.6002 0.00234479 12.322 0.00234251 14.0428 0.00234251Z" fill="#383838"/>
<path d="M13.9949 11.0011C9.96251 11.0011 5.93124 11.0022 1.89887 11C0.939827 11 0.251507 10.5065 0.0553142 9.69483C-0.218698 8.56513 0.573746 7.53305 1.75419 7.51988C3.28428 7.50343 4.81545 7.51549 6.34664 7.51549C12.9207 7.51549 19.4949 7.51549 26.069 7.51549C27.1179 7.51549 27.8106 8.0617 27.9662 9.00275C28.1273 9.97451 27.4017 10.9265 26.4175 10.9825C25.7358 11.0209 25.0518 11 24.3679 11C20.9109 11.0022 17.4529 11.0011 13.9949 11.0011Z" fill="#383838"/>
</svg>
